<svg version="1.1" id="Layer_1" xmlns="http://www.w3.org/2000/svg" xmlns:xlink="http://www.w3.org/1999/xlink" x="0px" y="0px"
	 width="100%" viewBox="0 0 500 500" enable-background="new 0 0 500 500" xml:space="preserve">
<path fill="#71D260" opacity="1.000000" stroke="none" 
	d="
M468.000000,501.000000 
	C456.645782,501.000000 445.291534,501.000000 433.468658,500.531342 
	C433.000000,357.125214 433.000885,214.187759 432.994202,71.250305 
	C432.994049,68.085892 432.907104,64.921478 432.872559,61.426399 
	C432.844666,60.652328 432.804840,60.208923 432.879761,59.866669 
	C432.994476,59.967819 432.757111,59.776340 433.069153,59.723747 
	C433.847748,59.033497 434.314270,58.395840 434.859039,57.860512 
	C434.937286,57.962841 434.762177,57.773510 435.100769,57.755356 
	C436.276062,56.784065 437.112701,55.830933 438.215820,54.698059 
	C440.032623,53.019081 441.582916,51.519840 443.412354,49.887035 
	C443.512604,48.477619 443.333710,47.201767 442.897552,45.793079 
	C442.078766,45.134148 441.517242,44.608051 440.859802,43.777668 
	C439.852631,43.037411 438.941406,42.601437 437.883118,41.765068 
	C437.491577,39.394619 437.047333,37.425758 437.035645,35.454330 
	C436.967499,23.969887 437.000885,12.484841 437.000000,1.000000 
	C447.020905,1.000000 457.041779,1.000000 467.531342,1.468657 
	C468.000000,168.291550 468.000000,334.645782 468.000000,501.000000 
z"/>
<path fill="#7AD75A" opacity="1.000000" stroke="none" 
	d="
M468.468658,501.000000 
	C468.000000,334.645782 468.000000,168.291550 468.000000,1.468657 
	C478.991486,1.000000 489.982971,1.000000 500.956360,1.000000 
	C500.956360,167.666672 500.956360,334.333344 500.956360,501.000000 
	C490.254272,501.000000 479.595795,501.000000 468.468658,501.000000 
z"/>
<path fill="#68CE67" opacity="1.000000" stroke="none" 
	d="
M432.860657,61.757065 
	C432.907104,64.921478 432.994049,68.085892 432.994202,71.250305 
	C433.000885,214.187759 433.000000,357.125214 433.000000,500.531342 
	C421.979095,501.000000 410.958221,501.000000 399.468658,500.531342 
	C399.000000,368.433197 399.007233,236.803726 398.950378,105.174263 
	C398.949188,102.419594 398.207489,99.665260 397.838928,96.558563 
	C397.841400,95.735184 397.816223,95.264023 397.894897,94.894447 
	C397.998779,94.996040 397.787598,94.796944 398.126648,94.766739 
	C399.246490,93.756775 400.027283,92.777008 400.897583,91.872879 
	C400.987091,91.948502 400.796326,91.813614 401.105927,91.755219 
	C401.884766,91.065804 402.354004,90.434776 402.890930,89.881683 
	C402.958618,89.959618 402.805145,89.821465 403.144318,89.788269 
	C404.251160,88.762131 405.018829,87.769188 405.883850,86.861465 
	C405.981140,86.946686 405.774109,86.792480 406.087830,86.727966 
	C406.881378,86.021454 407.361237,85.379471 407.950195,84.542725 
	C408.258911,84.112495 408.508453,83.957298 409.152710,83.837067 
	C410.591431,82.447693 411.685333,81.103615 412.858887,79.851990 
	C412.938568,79.944450 412.759857,79.778130 413.073151,79.730408 
	C413.846985,79.037437 414.307526,78.392189 414.852295,77.856384 
	C414.936523,77.965828 414.750336,77.761436 415.091614,77.736176 
	C416.217743,76.729309 417.002625,75.747696 417.858643,74.845276 
	C417.929779,74.924469 417.765656,74.788879 418.082947,74.727798 
	C418.870728,74.002655 419.341248,73.338585 419.908081,72.487656 
	C420.177246,72.067711 420.401093,71.904648 420.991638,71.741585 
	C421.778290,71.015480 422.249268,70.359406 422.842438,69.841171 
	C422.964630,69.979012 422.708740,69.713524 423.060699,69.704102 
	C424.882446,68.062027 426.352264,66.429367 427.870056,64.849426 
	C427.918060,64.902153 427.795593,64.829086 428.109253,64.754822 
	C428.888580,64.012924 429.354248,63.345291 429.919373,62.491776 
	C430.197906,62.077587 430.425049,61.917313 431.061401,61.843517 
	C431.901947,61.827000 432.381287,61.792034 432.860657,61.757065 
z"/>
<path fill="#0499AF" opacity="1.000000" stroke="none" 
	d="
M28.000000,501.000000 
	C19.007111,501.000000 10.014222,501.000000 1.041606,501.000000 
	C1.041606,334.333313 1.041606,167.666656 1.041606,1.000000 
	C9.743033,1.000000 18.402855,1.000000 27.531311,1.468657 
	C27.999939,81.084160 27.999907,160.231003 27.999931,239.377853 
	C27.999950,295.363831 27.960941,351.349915 28.104269,407.335541 
	C28.112263,410.456909 29.627380,413.574371 30.538017,416.953186 
	C30.573475,417.761047 30.511923,418.309387 30.120754,419.100525 
	C29.194448,421.660187 28.090714,423.974396 28.079018,426.294159 
	C27.953482,451.195587 28.000359,476.097931 28.000000,501.000000 
z"/>
<path fill="#60C96C" opacity="1.000000" stroke="none" 
	d="
M397.811249,96.910767 
	C398.207489,99.665260 398.949188,102.419594 398.950378,105.174263 
	C399.007233,236.803726 399.000000,368.433197 399.000000,500.531342 
	C389.312439,501.000000 379.624878,501.000000 369.468658,500.531342 
	C369.000000,378.435913 369.007690,256.809113 368.951233,135.182358 
	C368.949951,132.425110 368.221985,129.668167 367.861572,126.561333 
	C367.871429,125.743599 367.852783,125.275620 367.988434,124.526459 
	C369.691864,122.775406 371.241028,121.305542 373.126923,119.797333 
	C374.245697,118.777740 375.027679,117.796501 375.902283,116.905190 
	C375.994904,116.995117 375.814606,116.810371 376.122314,116.755875 
	C376.889221,116.069756 377.348358,115.438126 377.903748,114.903099 
	C378.000000,114.999695 377.806335,114.807762 378.117554,114.745644 
	C378.890503,114.032211 379.352264,113.380905 379.958740,112.469788 
	C380.977173,111.411171 381.850891,110.612373 383.040771,109.748505 
	C383.843781,109.029198 384.330536,108.374954 384.963684,107.462273 
	C385.999451,106.420807 386.888824,105.637772 388.117615,104.814667 
	C389.240601,103.780594 390.024200,102.786583 390.883514,101.858398 
	C390.959259,101.924225 390.790436,101.815979 391.095093,101.761459 
	C391.964417,100.921127 392.529053,100.135315 393.263397,99.095123 
	C394.199219,98.179214 394.965332,97.517677 396.078552,96.880142 
	C396.887543,96.906349 397.349396,96.908562 397.811249,96.910767 
z"/>
<path fill="#59C671" opacity="1.000000" stroke="none" 
	d="
M367.833008,126.911087 
	C368.221985,129.668167 368.949951,132.425110 368.951233,135.182358 
	C369.007690,256.809113 369.000000,378.435913 369.000000,500.531342 
	C359.979095,501.000000 350.958221,501.000000 341.468658,500.531342 
	C340.999847,452.368195 340.999725,404.673706 341.363098,356.852081 
	C343.087219,356.512543 344.447784,356.300110 346.347137,356.003540 
	C343.339630,352.038513 340.801727,348.692627 338.543457,345.047852 
	C339.327118,342.361755 340.139709,339.990936 340.267578,337.583771 
	C340.495667,333.290253 340.304688,328.974762 340.298462,324.668457 
	C340.277435,310.092987 340.255829,295.517548 340.243408,280.942078 
	C340.230988,266.364227 340.223694,251.786362 340.224670,237.208511 
	C340.225677,222.468155 340.017853,207.723389 340.311768,192.988739 
	C340.591431,178.966888 341.400970,164.955612 342.084045,150.619843 
	C350.058197,142.487289 357.925842,134.674576 366.133209,126.894325 
	C366.926300,126.921555 367.379639,126.916321 367.833008,126.911087 
z"/>
<path fill="#0A9CAB" opacity="1.000000" stroke="none" 
	d="
M30.441006,416.693665 
	C29.627380,413.574371 28.112263,410.456909 28.104269,407.335541 
	C27.960941,351.349915 27.999950,295.363831 27.999931,239.377853 
	C27.999907,160.231003 27.999939,81.084160 27.999973,1.468657 
	C34.354397,1.000000 40.708797,1.000000 47.531631,1.468657 
	C48.000095,127.482208 47.983101,253.027115 48.050278,378.571960 
	C48.053646,384.868988 48.785988,391.165649 49.091331,397.773163 
	C42.816177,404.287140 36.628590,410.490387 30.441006,416.693665 
z"/>
<path fill="#18A3A1" opacity="1.000000" stroke="none" 
	d="
M85.000000,1.000000 
	C91.687645,1.000000 98.375290,1.000000 105.531464,1.468657 
	C106.000000,110.490448 105.999870,219.043579 106.001114,327.596710 
	C106.001129,329.428040 105.656937,331.358887 106.126923,333.063049 
	C106.608932,334.810822 107.894882,336.336823 108.738922,338.277679 
	C101.751640,345.331177 94.854408,352.066925 87.701553,358.559631 
	C86.630684,355.053375 85.106201,351.790924 85.102745,348.526855 
	C84.980148,232.684662 85.000069,116.842323 85.000000,1.000000 
z"/>
<path fill="#1DA69D" opacity="1.000000" stroke="none" 
	d="
M108.828979,337.959900 
	C107.894882,336.336823 106.608932,334.810822 106.126923,333.063049 
	C105.656937,331.358887 106.001129,329.428040 106.001114,327.596710 
	C105.999870,219.043579 106.000000,110.490448 106.000000,1.468657 
	C113.020950,1.000000 120.041893,1.000000 127.531570,1.468657 
	C128.000412,103.218208 128.021133,204.499115 127.937218,305.779938 
	C127.933205,310.629395 127.005013,315.478088 126.489868,320.332703 
	C126.472542,320.338287 126.440979,320.320862 126.078575,320.344482 
	C124.896828,321.373199 124.077484,322.378296 123.255424,323.315063 
	C123.252708,323.246735 123.389404,323.243988 123.066971,323.311829 
	C122.149780,324.207855 121.555016,325.036072 120.837189,326.182739 
	C116.752419,330.320770 112.790703,334.140350 108.828979,337.959900 
z"/>
<path fill="#22A797" opacity="1.000000" stroke="none" 
	d="
M126.507210,320.327118 
	C127.005013,315.478088 127.933205,310.629395 127.937218,305.779938 
	C128.021133,204.499115 128.000412,103.218208 128.000153,1.468657 
	C135.020950,1.000000 142.041901,1.000000 149.490295,1.397285 
	C149.668243,3.270267 149.206482,4.745287 149.201767,6.221765 
	C149.150055,22.412642 149.064026,38.604607 149.196518,54.794571 
	C149.361588,74.963486 149.921555,95.130409 149.961365,115.298882 
	C150.071472,171.087204 149.995438,226.875885 150.018478,282.664429 
	C150.019287,284.626434 150.290619,286.588348 150.435867,288.550293 
	C150.956375,288.509247 151.476898,288.468231 151.997406,288.427185 
	C151.997406,286.328278 151.997375,284.229370 151.997421,282.130463 
	C151.998337,227.507645 151.973816,172.884796 152.084457,118.262192 
	C152.089355,115.840515 153.326111,113.421326 154.147919,111.447174 
	C154.347855,112.224022 154.425217,112.554718 154.424881,112.885330 
	C154.366409,171.529312 154.320312,230.173340 154.163269,288.817047 
	C154.157837,290.847961 153.651123,293.470154 152.344971,294.808685 
	C143.892426,303.471008 135.152771,311.853149 126.507210,320.327118 
z"/>
<path fill="#13A1A4" opacity="1.000000" stroke="none" 
	d="
M84.531731,1.000000 
	C85.000069,116.842323 84.980148,232.684662 85.102745,348.526855 
	C85.106201,351.790924 86.630684,355.053375 87.601562,358.891052 
	C81.720245,365.394440 75.683296,371.323303 69.250870,377.112427 
	C64.721939,375.077789 66.052849,371.292023 66.051323,368.186188 
	C65.991096,245.790817 66.000046,123.395409 66.000000,1.000000 
	C72.021156,1.000000 78.042305,1.000000 84.531731,1.000000 
z"/>
<path fill="#0E9EA8" opacity="1.000000" stroke="none" 
	d="
M65.532059,1.000000 
	C66.000046,123.395409 65.991096,245.790817 66.051323,368.186188 
	C66.052849,371.292023 64.721939,375.077789 69.114479,377.440918 
	C62.642010,384.426910 55.910454,390.944672 49.178902,397.462463 
	C48.785988,391.165649 48.053646,384.868988 48.050278,378.571960 
	C47.983101,253.027115 48.000095,127.482208 48.000031,1.468657 
	C53.688042,1.000000 59.376083,1.000000 65.532059,1.000000 
z"/>
<path fill="#35B28B" opacity="1.000000" stroke="none" 
	d="
M224.000000,501.000000 
	C215.979095,501.000000 207.958191,501.000000 199.468643,500.531342 
	C198.999664,452.723846 198.999344,405.385010 199.350906,357.903687 
	C200.481064,355.568146 201.916840,353.380646 201.935364,351.181183 
	C202.111862,330.235077 202.062363,309.286896 202.038376,288.339417 
	C202.034683,285.119324 202.845139,281.403839 197.525162,281.246063 
	C196.749786,281.223053 195.605042,278.676849 195.395309,277.190399 
	C194.552887,271.219452 195.138214,265.377258 197.954086,259.937012 
	C197.965729,259.969696 197.902679,259.940826 198.243820,259.878906 
	C203.686493,254.462845 208.788040,249.108688 214.012268,243.453430 
	C216.160019,241.229584 218.185089,239.306839 220.525116,237.707932 
	C221.561417,240.312408 222.713120,242.556091 222.912811,244.881516 
	C223.306000,249.460526 223.170776,254.084915 223.165863,258.993835 
	C220.430756,261.882904 217.783920,264.468689 214.846283,267.171082 
	C211.965881,270.688354 214.553680,271.813507 217.287079,273.055023 
	C217.750366,273.539825 217.982269,273.946045 218.241425,274.738831 
	C220.180206,279.410034 222.091736,283.694672 224.002548,288.449280 
	C224.001236,359.612823 224.000610,430.306396 224.000000,501.000000 
z"/>
<path fill="#3BB587" opacity="1.000000" stroke="none" 
	d="
M224.468628,501.000000 
	C224.000610,430.306396 224.001236,359.612823 224.391388,288.465759 
	C226.560989,288.326416 228.341049,288.640564 230.346878,289.043579 
	C230.775803,289.550293 230.978958,289.968109 231.253662,290.737122 
	C231.977783,291.720276 232.630356,292.352264 233.347900,293.007751 
	C233.412857,293.031219 233.370071,293.162567 233.360184,293.555023 
	C234.940399,295.629150 236.530502,297.310822 238.224960,299.025269 
	C238.329315,299.058075 238.268555,299.268219 238.279602,299.653381 
	C239.569565,301.342163 240.848480,302.645752 242.410706,304.056580 
	C243.515488,305.272461 244.336990,306.381134 245.216461,307.818298 
	C245.852753,308.762085 246.431061,309.377380 247.245743,310.082214 
	C247.722031,310.593903 247.961945,311.016052 248.159332,311.878601 
	C248.081848,313.200043 248.046906,314.081085 247.918976,315.372009 
	C247.550705,318.752258 247.037628,321.722443 247.035233,324.693024 
	C246.988052,383.462006 247.000031,442.230988 247.000000,501.000000 
	C239.645752,501.000000 232.291504,501.000000 224.468628,501.000000 
z"/>
<path fill="#41B882" opacity="1.000000" stroke="none" 
	d="
M247.468628,501.000000 
	C247.000031,442.230988 246.988052,383.462006 247.035233,324.693024 
	C247.037628,321.722443 247.550705,318.752258 248.295563,315.384033 
	C249.519196,314.988342 250.273239,314.990540 251.146591,315.039001 
	C251.265884,315.085266 251.231079,315.338776 251.251190,315.719452 
	C252.561676,317.379028 253.852066,318.657928 255.421738,320.066467 
	C256.516724,321.339020 257.332428,322.481964 258.212036,323.940826 
	C258.859894,324.833069 259.443817,325.409393 260.247009,326.095459 
	C260.706482,326.616028 260.946716,327.026794 261.240479,327.772888 
	C261.887146,328.724792 262.480286,329.341400 263.368195,330.112305 
	C265.821808,333.079254 267.980621,335.891907 270.201477,339.007080 
	C270.820343,339.864990 271.377228,340.420380 272.077118,341.061981 
	C272.220123,341.148224 272.248657,341.480988 272.177429,341.895813 
	C271.466919,344.543335 270.311096,346.767792 270.275543,349.010010 
	C270.097168,360.268005 270.214111,371.530640 270.222778,382.791626 
	C270.234131,397.526489 270.240906,412.261322 270.250336,426.996185 
	C270.259766,441.733551 270.306488,456.471008 270.267181,471.208252 
	C270.240692,481.139008 270.093292,491.069427 270.000000,501.000000 
	C262.645752,501.000000 255.291504,501.000000 247.468628,501.000000 
z"/>
<path fill="#35B28B" opacity="1.000000" stroke="none" 
	d="
M198.000000,1.000000 
	C205.687576,1.000000 213.375168,1.000000 221.531372,1.468657 
	C222.000092,54.490730 221.956223,107.044266 222.090073,159.597336 
	C222.099976,163.484726 223.388702,167.368866 223.974396,171.563751 
	C217.878113,177.905121 211.890350,183.937256 205.516907,189.937988 
	C201.092072,189.342407 202.053360,186.144058 202.046432,183.693359 
	C201.982132,160.978226 202.072891,138.262344 201.898361,115.548378 
	C201.882416,113.473183 200.334900,111.409760 199.482391,109.371185 
	C199.466187,109.401489 199.399368,109.385353 199.428589,108.980629 
	C198.971466,101.645805 198.103165,94.717789 198.065369,87.785240 
	C197.907654,58.857571 197.999588,29.928535 198.000000,1.000000 
z"/>
<path fill="#23A998" opacity="1.000000" stroke="none" 
	d="
M151.000000,501.000000 
	C144.645599,501.000000 138.291214,501.000000 131.468414,500.531342 
	C131.000000,498.896820 131.000000,497.730957 131.000000,496.565094 
	C130.999756,444.933990 131.065308,393.302673 130.867554,341.672333 
	C130.852600,337.771606 128.964279,333.878052 128.048920,329.658386 
	C134.641418,322.844818 141.131805,316.354065 148.021118,309.964050 
	C149.280075,312.133392 150.474899,314.131439 150.928909,316.285583 
	C151.813828,320.484192 152.283981,324.770203 152.934479,329.486694 
	C152.952148,338.633820 152.961243,347.314270 152.653900,356.207520 
	C151.892319,358.793457 151.062881,361.165924 151.058868,363.539764 
	C150.981445,409.359741 151.000687,455.179901 151.000000,501.000000 
z"/>
<path fill="#52C277" opacity="1.000000" stroke="none" 
	d="
M340.999573,356.979248 
	C340.999725,404.673706 340.999847,452.368195 341.000000,500.531342 
	C332.645782,501.000000 324.291534,501.000000 315.468658,500.531342 
	C315.000519,452.385284 315.001038,404.707855 315.454285,356.898499 
	C324.271210,356.837463 332.635406,356.908356 340.999573,356.979248 
z"/>
<path fill="#1EA69C" opacity="1.000000" stroke="none" 
	d="
M127.946777,329.981171 
	C128.964279,333.878052 130.852600,337.771606 130.867554,341.672333 
	C131.065308,393.302673 130.999756,444.933990 131.000000,496.565094 
	C131.000000,497.730957 131.000000,498.896820 131.000000,500.531342 
	C123.645744,501.000000 116.291496,501.000000 108.468597,500.531342 
	C107.999870,478.272430 108.000053,456.482147 107.999626,434.691895 
	C107.999138,410.073883 107.994354,385.455872 108.002075,360.837860 
	C108.003036,357.772980 108.118248,354.682648 104.380295,353.299347 
	C112.312943,345.304291 120.129860,337.642731 127.946777,329.981171 
z"/>
<path fill="#3AB587" opacity="1.000000" stroke="none" 
	d="
M224.082916,171.254517 
	C223.388702,167.368866 222.099976,163.484726 222.090073,159.597336 
	C221.956223,107.044266 222.000092,54.490730 222.000000,1.468657 
	C229.020950,1.000000 236.041901,1.000000 243.531433,1.468657 
	C244.000000,14.569134 243.999847,27.200953 244.000046,39.832771 
	C244.000534,72.575737 244.002884,105.318710 243.999298,138.061676 
	C243.998917,141.601624 243.928497,145.155746 247.464050,147.564026 
	C239.574615,155.674545 231.828766,163.464523 224.082916,171.254517 
z"/>
<path fill="#4CBE7B" opacity="1.000000" stroke="none" 
	d="
M315.001556,357.030457 
	C315.001038,404.707855 315.000519,452.385284 315.000000,500.531342 
	C307.645752,501.000000 300.291504,501.000000 292.468628,500.531342 
	C292.000000,456.688934 291.971985,413.315125 292.043732,369.941498 
	C292.050812,365.647736 292.667603,361.354980 293.454773,356.932617 
	C300.939270,356.879181 307.970398,356.954803 315.001556,357.030457 
z"/>
<path fill="#40B883" opacity="1.000000" stroke="none" 
	d="
M247.607666,147.243515 
	C243.928497,145.155746 243.998917,141.601624 243.999298,138.061676 
	C244.002884,105.318710 244.000534,72.575737 244.000046,39.832771 
	C243.999847,27.200953 244.000000,14.569134 244.000000,1.468657 
	C251.687576,1.000000 259.375153,1.000000 267.531372,1.468657 
	C268.000000,29.544546 267.998718,57.151779 268.000702,84.759010 
	C268.001434,95.070122 267.989624,105.381302 268.027588,115.692291 
	C268.038330,118.613914 268.224304,121.522179 271.981659,122.353859 
	C263.790588,130.866806 255.699127,139.055161 247.607666,147.243515 
z"/>
<path fill="#47BC7F" opacity="1.000000" stroke="none" 
	d="
M293.001434,357.061737 
	C292.667603,361.354980 292.050812,365.647736 292.043732,369.941498 
	C291.971985,413.315125 292.000000,456.688934 292.000000,500.531342 
	C284.979034,501.000000 277.958099,501.000000 270.468567,501.000000 
	C270.093292,491.069427 270.240692,481.139008 270.267181,471.208252 
	C270.306488,456.471008 270.259766,441.733551 270.250336,426.996185 
	C270.240906,412.261322 270.234131,397.526489 270.222778,382.791626 
	C270.214111,371.530640 270.097168,360.268005 270.275543,349.010010 
	C270.311096,346.767792 271.466919,344.543335 272.496765,342.031189 
	C274.650421,344.045105 276.413483,346.338531 278.237305,348.946777 
	C278.887878,349.822083 279.477692,350.382568 280.365784,351.104248 
	C283.467987,355.982849 288.015686,356.988495 293.001434,357.061737 
z"/>
<path fill="#18A3A0" opacity="1.000000" stroke="none" 
	d="
M104.264572,353.632843 
	C108.118248,354.682648 108.003036,357.772980 108.002075,360.837860 
	C107.994354,385.455872 107.999138,410.073883 107.999626,434.691895 
	C108.000053,456.482147 107.999870,478.272430 107.999977,500.531342 
	C100.979050,501.000000 93.958107,501.000000 86.468582,500.531342 
	C85.999893,461.208740 86.035606,422.354736 85.937614,383.501038 
	C85.928955,380.071655 85.046822,376.644470 84.655075,372.909729 
	C91.248024,366.279755 97.756294,359.956299 104.264572,353.632843 
z"/>
<path fill="#28AC95" opacity="1.000000" stroke="none" 
	d="
M153.989075,111.000977 
	C153.326111,113.421326 152.089355,115.840515 152.084457,118.262192 
	C151.973816,172.884796 151.998337,227.507645 151.997421,282.130463 
	C151.997375,284.229370 151.997406,286.328278 151.997406,288.427185 
	C151.476898,288.468231 150.956375,288.509247 150.435867,288.550293 
	C150.290619,286.588348 150.019287,284.626434 150.018478,282.664429 
	C149.995438,226.875885 150.071472,171.087204 149.961365,115.298882 
	C149.921555,95.130409 149.361588,74.963486 149.196518,54.794571 
	C149.064026,38.604607 149.150055,22.412642 149.201767,6.221765 
	C149.206482,4.745287 149.668243,3.270267 149.958878,1.397285 
	C157.687576,1.000000 165.375168,1.000000 173.531616,1.468657 
	C174.000717,33.385292 173.997650,64.833267 174.004456,96.281242 
	C174.005569,101.418983 175.438019,107.301460 167.572708,108.208061 
	C167.356705,108.232964 167.194458,108.724373 166.580536,109.119522 
	C164.100403,109.164650 162.046860,109.088516 159.875916,108.757935 
	C158.840332,108.679771 157.922165,108.856049 156.740784,109.185165 
	C155.648071,109.892334 154.818573,110.446655 153.989075,111.000977 
z"/>
<path fill="#2FB090" opacity="1.000000" stroke="none" 
	d="
M198.999008,358.046173 
	C198.999344,405.385010 198.999664,452.723846 199.000000,500.531342 
	C192.312363,501.000000 185.624710,501.000000 178.468536,500.531342 
	C178.002075,452.730865 178.004150,405.399017 178.473969,358.054260 
	C185.627472,358.042938 192.313232,358.044556 198.999008,358.046173 
z"/>
<path fill="#59C671" opacity="1.000000" stroke="none" 
	d="
M345.000000,1.000000 
	C352.354248,1.000000 359.708496,1.000000 367.531372,1.468657 
	C368.000183,35.039452 367.940491,68.141853 368.087250,101.243340 
	C368.103027,104.804443 369.319031,108.360222 369.862183,112.236145 
	C362.848450,119.376678 355.950867,126.199539 348.669006,132.961716 
	C347.194672,131.151031 345.331024,129.471497 345.163910,127.637398 
	C344.716919,122.731529 344.997742,117.759331 345.034088,112.609596 
	C345.220367,112.130684 345.445648,111.986946 346.053650,111.855446 
	C346.595551,110.749001 347.160370,109.714973 347.025269,108.782349 
	C346.464844,104.914375 345.110016,101.079979 345.090637,97.227989 
	C344.929199,65.152657 344.999603,33.076153 345.000000,1.000000 
z"/>
<path fill="#46BC7F" opacity="1.000000" stroke="none" 
	d="
M272.081268,122.029251 
	C268.224304,121.522179 268.038330,118.613914 268.027588,115.692291 
	C267.989624,105.381302 268.001434,95.070122 268.000702,84.759010 
	C267.998718,57.151779 268.000000,29.544546 268.000000,1.468657 
	C276.020905,1.000000 284.041809,1.000000 292.531372,1.468657 
	C292.999573,37.629982 292.999146,73.322655 292.582214,109.146637 
	C286.750336,108.554535 282.840088,110.945465 279.446411,114.968430 
	C277.265717,117.553474 274.554596,119.691086 272.081268,122.029251 
z"/>
<path fill="#2EAC8D" opacity="1.000000" stroke="none" 
	d="
M167.007141,108.998245 
	C167.194458,108.724373 167.356705,108.232964 167.572708,108.208061 
	C175.438019,107.301460 174.005569,101.418983 174.004456,96.281242 
	C173.997650,64.833267 174.000717,33.385292 174.000244,1.468657 
	C181.687576,1.000000 189.375168,1.000000 197.531372,1.000000 
	C197.999588,29.928535 197.907654,58.857571 198.065369,87.785240 
	C198.103165,94.717789 198.971466,101.645805 199.004364,109.034195 
	C188.036346,109.327736 177.521744,109.162994 167.007141,108.998245 
z"/>
<path fill="#2AAD94" opacity="1.000000" stroke="none" 
	d="
M178.006226,358.067200 
	C178.004150,405.399017 178.002075,452.730865 178.000000,500.531342 
	C172.645065,501.000000 167.290146,501.000000 161.467102,500.531342 
	C161.005646,452.720764 161.012314,405.378876 161.484467,358.029602 
	C167.302063,358.037231 172.654144,358.052216 178.006226,358.067200 
z"/>
<path fill="#5FC86C" opacity="1.000000" stroke="none" 
	d="
M369.978302,111.918457 
	C369.319031,108.360222 368.103027,104.804443 368.087250,101.243340 
	C367.940491,68.141853 368.000183,35.039452 368.000000,1.468657 
	C375.687592,1.000000 383.375153,1.000000 391.531372,1.468657 
	C392.000305,27.229357 391.900726,52.522305 392.130798,77.812256 
	C392.158722,80.878639 393.964020,83.928856 394.836792,87.306938 
	C391.023560,91.180099 387.283447,94.696602 383.623718,98.294891 
	C379.040741,102.800980 374.523743,107.374207 369.978302,111.918457 
z"/>
<path fill="#13A0A4" opacity="1.000000" stroke="none" 
	d="
M84.570381,373.216278 
	C85.046822,376.644470 85.928955,380.071655 85.937614,383.501038 
	C86.035606,422.354736 85.999893,461.208740 86.000000,500.531342 
	C79.978844,501.000000 73.957695,501.000000 67.468262,500.531342 
	C66.987846,463.667542 66.975693,427.272369 67.075989,390.565552 
	C72.982422,384.574646 78.776398,378.895447 84.570381,373.216278 
z"/>
<path fill="#4CBF7B" opacity="1.000000" stroke="none" 
	d="
M292.998688,109.015320 
	C292.999146,73.322655 292.999573,37.629982 293.000000,1.468657 
	C299.687653,1.000000 306.375275,1.000000 313.531464,1.468657 
	C314.000000,33.329735 313.962067,64.722252 314.044312,96.114456 
	C314.055573,100.406654 314.665863,104.697296 314.544617,109.113922 
	C307.059875,109.164566 300.029266,109.089943 292.998688,109.015320 
z"/>
<path fill="#0E9EA7" opacity="1.000000" stroke="none" 
	d="
M66.963547,390.877228 
	C66.975693,427.272369 66.987846,463.667542 67.000000,500.531342 
	C61.311958,501.000000 55.623920,501.000000 49.467953,500.531342 
	C48.999641,473.124298 49.075703,446.185303 48.868660,419.248505 
	C48.850029,416.824402 47.002209,414.414398 46.106312,411.677765 
	C53.127010,404.530884 60.045284,397.704071 66.963547,390.877228 
z"/>
<path fill="#53C173" opacity="1.000000" stroke="none" 
	d="
M344.533142,1.000000 
	C344.999603,33.076153 344.929199,65.152657 345.090637,97.227989 
	C345.110016,101.079979 346.464844,104.914375 347.025269,108.782349 
	C347.160370,109.714973 346.595551,110.749001 346.035278,111.470039 
	C344.244965,110.600357 342.791107,109.533653 341.295807,109.471992 
	C333.871063,109.165863 326.435364,109.124664 319.206421,108.675919 
	C320.112732,107.958832 320.773499,107.329872 321.526093,107.188110 
	C328.992554,105.781647 328.999329,105.804436 328.999603,97.945839 
	C329.000610,65.630562 329.000000,33.315281 329.000000,1.000000 
	C334.022095,1.000000 339.044189,1.000000 344.533142,1.000000 
z"/>
<path fill="#0A9CAB" opacity="1.000000" stroke="none" 
	d="
M46.003876,411.997833 
	C47.002209,414.414398 48.850029,416.824402 48.868660,419.248505 
	C49.075703,446.185303 48.999641,473.124298 49.000015,500.531342 
	C42.312355,501.000000 35.624710,501.000000 28.468533,501.000000 
	C28.000359,476.097931 27.953482,451.195587 28.079018,426.294159 
	C28.090714,423.974396 29.194448,421.660187 30.371424,419.259888 
	C31.633135,420.136322 32.314556,421.096283 33.117706,422.303955 
	C34.159733,422.378998 35.080040,422.206390 36.103027,421.711609 
	C39.471760,418.258911 42.737816,415.128357 46.003876,411.997833 
z"/>
<path fill="#65CC69" opacity="1.000000" stroke="none" 
	d="
M394.945557,86.986588 
	C393.964020,83.928856 392.158722,80.878639 392.130798,77.812256 
	C391.900726,52.522305 392.000305,27.229357 392.000000,1.468657 
	C398.687653,1.000000 405.375275,1.000000 412.617920,1.384429 
	C413.364868,14.515985 413.452057,27.265856 413.785461,40.009285 
	C414.010101,48.596569 414.582428,57.174755 414.837738,66.040535 
	C414.493256,66.932091 414.310272,67.540123 414.082458,68.103363 
	C414.037598,68.058563 414.148590,68.119751 413.818237,68.174698 
	C412.687317,69.189812 411.886749,70.149971 411.060883,71.064941 
	C411.035583,71.019745 411.112152,71.089554 410.805573,71.151718 
	C410.018585,71.842606 409.538147,72.471344 408.930237,73.376022 
	C407.910736,74.460396 407.018646,75.268814 405.822174,76.143318 
	C405.034882,76.833977 404.551971,77.458549 404.037445,78.045807 
	C404.005859,78.008476 404.082672,78.068848 403.756409,78.124756 
	C402.641205,79.144234 401.852325,80.107811 401.033356,81.035965 
	C401.003265,81.000542 401.071594,81.064171 400.769470,81.136826 
	C400.003479,81.844398 399.539581,82.479309 398.936218,83.401794 
	C397.513031,84.788429 396.229309,85.887512 394.945557,86.986588 
z"/>
<path fill="#51C177" opacity="1.000000" stroke="none" 
	d="
M328.533875,1.000000 
	C329.000000,33.315281 329.000610,65.630562 328.999603,97.945839 
	C328.999329,105.804436 328.992554,105.781647 321.526093,107.188110 
	C320.773499,107.329872 320.112732,107.958832 318.816223,108.796570 
	C317.148346,109.150528 316.073578,109.069595 314.998810,108.988655 
	C314.665863,104.697296 314.055573,100.406654 314.044312,96.114456 
	C313.962067,64.722252 314.000000,33.329735 314.000000,1.468657 
	C318.689240,1.000000 323.378510,1.000000 328.533875,1.000000 
z"/>
<path fill="#27A892" opacity="1.000000" stroke="none" 
	d="
M161.018967,358.036957 
	C161.012314,405.378876 161.005646,452.720764 160.999496,500.531342 
	C157.969406,501.000000 154.938812,501.000000 151.454102,501.000000 
	C151.000687,455.179901 150.981445,409.359741 151.058868,363.539764 
	C151.062881,361.165924 151.892319,358.793457 152.946640,356.224609 
	C153.945862,356.037323 154.335907,356.045776 155.156708,356.152344 
	C157.049652,356.339294 158.511856,356.428162 160.054779,356.736084 
	C160.429993,357.315765 160.724487,357.676361 161.018967,358.036957 
z"/>
<path fill="#6BCF65" opacity="1.000000" stroke="none" 
	d="
M414.999237,65.757011 
	C414.582428,57.174755 414.010101,48.596569 413.785461,40.009285 
	C413.452057,27.265856 413.364868,14.515985 413.086456,1.384429 
	C420.687592,1.000000 428.375153,1.000000 436.531372,1.000000 
	C437.000885,12.484841 436.967499,23.969887 437.035645,35.454330 
	C437.047333,37.425758 437.491577,39.394619 437.706177,42.025700 
	C437.134003,43.821953 436.591675,44.957172 435.953461,46.303986 
	C435.679932,46.785568 435.437622,46.971069 434.790771,47.117661 
	C433.324860,48.473640 432.198822,49.784039 431.045410,51.055817 
	C431.018005,51.017197 431.094391,51.073162 430.754639,51.122772 
	C428.971252,52.817238 427.527618,54.462097 426.054504,56.066116 
	C426.024994,56.025280 426.107330,56.083370 425.799500,56.152824 
	C425.021942,56.862675 424.552216,57.503075 423.949280,58.415756 
	C422.910034,59.477787 422.003967,60.267540 420.741516,61.106117 
	C419.394806,62.309574 418.404449,63.464211 417.326202,64.857307 
	C416.867950,65.424240 416.497620,65.752724 415.849182,65.986633 
	C415.380463,65.847038 415.189850,65.802025 414.999237,65.757011 
z"/>
<path fill="#040A06" opacity="1.000000" stroke="none" 
	d="
M416.127319,66.081207 
	C416.497620,65.752724 416.867950,65.424240 417.654053,64.780762 
	C419.079193,63.329605 420.088562,62.193443 421.097900,61.057289 
	C422.003967,60.267540 422.910034,59.477787 424.246674,58.331497 
	C425.153931,57.344433 425.630646,56.713902 426.107330,56.083374 
	C426.107330,56.083370 426.024994,56.025280 426.378754,55.991737 
	C428.186462,54.329849 429.640411,52.701500 431.094391,51.073158 
	C431.094391,51.073162 431.018005,51.017197 431.367004,50.983673 
	C432.854187,49.657459 433.992432,48.364769 435.130646,47.072083 
	C435.437622,46.971069 435.679932,46.785568 436.281830,46.228302 
	C438.122650,45.321346 439.539185,44.701660 440.955750,44.081963 
	C441.517242,44.608051 442.078766,45.134148 442.898071,46.203636 
	C443.148285,47.838215 443.140747,48.929401 443.133179,50.020592 
	C441.582916,51.519840 440.032623,53.019081 437.886047,54.708298 
	C436.447266,55.856682 435.604706,56.815094 434.762177,57.773510 
	C434.762177,57.773510 434.937286,57.962841 434.558105,57.924091 
	C433.705017,58.515675 433.231079,59.146011 432.757111,59.776344 
	C432.757111,59.776340 432.994476,59.967819 432.578888,59.945763 
	C431.675598,60.557491 431.187897,61.191277 430.700195,61.825066 
	C430.425049,61.917313 430.197906,62.077587 429.615936,62.575516 
	C428.740570,63.506454 428.268097,64.167770 427.795593,64.829086 
	C427.795593,64.829086 427.918060,64.902153 427.552338,64.939301 
	C425.694000,66.555473 424.201355,68.134499 422.708740,69.713524 
	C422.708740,69.713524 422.964630,69.979012 422.545715,69.933868 
	C421.643188,70.529694 421.159576,71.170654 420.675934,71.811615 
	C420.401093,71.904648 420.177246,72.067711 419.608337,72.571831 
	C418.730042,73.491531 418.247833,74.140205 417.765656,74.788879 
	C417.765656,74.788879 417.929779,74.924469 417.549713,74.923393 
	C416.363220,75.868698 415.556793,76.815071 414.750336,77.761444 
	C414.750336,77.761436 414.936523,77.965828 414.558289,77.931702 
	C413.706665,78.524429 413.233246,79.151276 412.759857,79.778130 
	C412.759857,79.778130 412.938568,79.944450 412.539673,79.933228 
	C411.029816,81.242126 409.918854,82.562248 408.807892,83.882370 
	C408.508453,83.957298 408.258911,84.112495 407.649109,84.620575 
	C406.750641,85.526291 406.262390,86.159393 405.774109,86.792488 
	C405.774109,86.792480 405.981140,86.946686 405.578247,86.949982 
	C404.385284,87.909340 403.595215,88.865402 402.805145,89.821457 
	C402.805145,89.821465 402.958618,89.959618 402.594849,89.955116 
	C401.752808,90.571609 401.274567,91.192604 400.796326,91.813606 
	C400.796326,91.813614 400.987091,91.948502 400.588867,91.952454 
	C399.389618,92.903252 398.588623,93.850098 397.787598,94.796944 
	C397.787598,94.796944 397.998779,94.996040 397.593933,94.972740 
	C396.703186,95.585014 396.217316,96.220581 395.731445,96.856148 
	C394.965332,97.517677 394.199219,98.179214 392.970947,99.156914 
	C391.936005,100.254044 391.363220,101.035019 390.790466,101.815987 
	C390.790436,101.815979 390.959259,101.924225 390.574951,101.946945 
	C389.386505,102.931366 388.582367,103.893059 387.778229,104.854744 
	C386.888824,105.637772 385.999451,106.420807 384.658142,107.537628 
	C383.712311,108.518806 383.218445,109.166183 382.724548,109.813568 
	C381.850891,110.612373 380.977173,111.411171 379.660156,112.546066 
	C378.746643,113.524025 378.276489,114.165894 377.806335,114.807755 
	C377.806335,114.807762 378.000000,114.999695 377.610260,114.974304 
	C376.751892,115.569389 376.283234,116.189873 375.814575,116.810364 
	C375.814606,116.810371 375.994904,116.995117 375.593689,116.984634 
	C374.391724,117.928001 373.590942,118.881836 372.790161,119.835670 
	C371.241028,121.305542 369.691864,122.775406 367.688416,124.600548 
	C366.753906,125.591164 366.273712,126.226501 365.793488,126.861847 
	C357.925842,134.674576 350.058197,142.487289 341.758484,150.722717 
	C331.129211,161.508621 320.932037,171.871826 310.400269,182.364227 
	C301.290466,191.427597 292.515259,200.361755 283.403900,209.416092 
	C273.385254,219.144608 263.637329,228.689194 254.116135,238.454880 
	C253.106689,239.490250 252.536118,242.549423 253.265244,243.442795 
	C263.028137,255.404861 273.058807,267.148407 283.083862,279.186035 
	C283.312866,279.731720 283.563873,279.935333 283.964996,280.372437 
	C285.608490,282.377960 287.184875,284.047668 288.791626,285.986267 
	C289.450562,286.873352 290.079102,287.491486 290.782288,288.452148 
	C291.803558,289.796967 292.750244,290.799255 293.735931,292.120728 
	C299.471405,299.112213 305.167877,305.784454 310.938965,312.770813 
	C320.096985,323.838867 329.180389,334.592804 338.263794,345.346741 
	C340.801727,348.692627 343.339630,352.038513 346.347137,356.003540 
	C344.447784,356.300110 343.087219,356.512543 341.363098,356.852112 
	C332.635406,356.908356 324.271210,356.837463 315.454285,356.898499 
	C307.970398,356.954803 300.939270,356.879181 293.454773,356.932617 
	C288.015686,356.988495 283.467987,355.982849 280.328369,350.786560 
	C279.387268,349.749054 278.781921,349.190491 278.176544,348.631958 
	C276.413483,346.338531 274.650421,344.045105 272.567993,341.616333 
	C272.248657,341.480988 272.220123,341.148224 272.039520,340.755310 
	C271.285767,339.809753 270.712616,339.257172 270.139465,338.704559 
	C267.980621,335.891907 265.821808,333.079254 263.325562,329.784607 
	C262.387756,328.680939 261.787354,328.059265 261.186951,327.437592 
	C260.946716,327.026794 260.706482,326.616028 260.205505,325.777710 
	C259.345947,324.775085 258.747040,324.200012 258.148163,323.624908 
	C257.332428,322.481964 256.516724,321.339020 255.359833,319.729553 
	C253.756134,317.954926 252.493607,316.646851 251.231079,315.338776 
	C251.231079,315.338776 251.265884,315.085266 251.103241,314.704163 
	C250.027679,313.361450 249.114777,312.399811 248.201874,311.438202 
	C247.961945,311.016052 247.722031,310.593903 247.200378,309.759705 
	C246.331909,308.728363 245.745193,308.109100 245.158478,307.489838 
	C244.336990,306.381134 243.515488,305.272461 242.340744,303.719940 
	C240.747849,301.940155 239.508209,300.604187 238.268555,299.268219 
	C238.268555,299.268219 238.329315,299.058075 238.159729,298.685059 
	C236.450134,296.595551 234.910110,294.879059 233.370087,293.162567 
	C233.370071,293.162567 233.412857,293.031219 233.284454,292.662170 
	C232.498077,291.657410 231.840103,291.021667 231.182114,290.385956 
	C230.978958,289.968109 230.775803,289.550293 230.281403,288.704956 
	C226.064819,283.635742 222.139496,278.993988 218.214172,274.352234 
	C217.982269,273.946045 217.750366,273.539825 217.226715,272.709106 
	C216.335663,270.541229 215.736374,268.797882 215.137085,267.054504 
	C217.783920,264.468689 220.430756,261.882904 223.498169,258.866425 
	C229.937637,252.287872 235.956543,246.140015 242.293655,239.881439 
	C251.087082,231.205429 259.562286,222.640167 268.349396,213.947464 
	C278.136078,204.226059 287.610870,194.632080 297.389709,184.904236 
	C306.799072,175.513901 315.904327,166.257416 325.318878,156.872253 
	C333.436523,148.836533 341.244873,140.929459 349.053253,133.022400 
	C355.950867,126.199539 362.848450,119.376678 369.862183,112.236137 
	C374.523743,107.374207 379.040741,102.800980 383.623718,98.294891 
	C387.283447,94.696602 391.023560,91.180099 394.836792,87.306946 
	C396.229309,85.887512 397.513031,84.788429 399.234375,83.327942 
	C400.138489,82.332405 400.605042,81.698288 401.071594,81.064163 
	C401.071594,81.064171 401.003265,81.000542 401.349854,80.974327 
	C402.491882,79.988358 403.287292,79.028610 404.082672,78.068848 
	C404.082672,78.068848 404.005859,78.008476 404.337708,77.977615 
	C405.155212,77.323578 405.640869,76.700401 406.126556,76.077232 
	C407.018646,75.268814 407.910736,74.460396 409.229492,73.304153 
	C410.141510,72.334068 410.626831,71.711807 411.112152,71.089554 
	C411.112152,71.089554 411.035583,71.019745 411.377686,71.003525 
	C412.529388,70.031448 413.338989,69.075600 414.148590,68.119751 
	C414.148590,68.119751 414.037598,68.058563 414.378296,68.020172 
	C415.188446,67.348251 415.657867,66.714729 416.127319,66.081207 
z"/>
<path fill="#56A34D" opacity="1.000000" stroke="none" 
	d="
M440.859772,43.777679 
	C439.539185,44.701660 438.122650,45.321346 436.377747,46.016712 
	C436.591675,44.957172 437.134003,43.821953 437.853271,42.426094 
	C438.941406,42.601437 439.852631,43.037411 440.859772,43.777679 
z"/>
<path fill="#56A34D" opacity="1.000000" stroke="none" 
	d="
M435.100769,57.755356 
	C435.604706,56.815094 436.447266,55.856682 437.619568,54.888035 
	C437.112701,55.830933 436.276062,56.784065 435.100769,57.755356 
z"/>
<path fill="#56A34D" opacity="1.000000" stroke="none" 
	d="
M443.412354,49.887032 
	C443.140747,48.929401 443.148285,47.838215 443.155334,46.336472 
	C443.333710,47.201767 443.512604,48.477619 443.412354,49.887032 
z"/>
<path fill="#56A34D" opacity="1.000000" stroke="none" 
	d="
M433.069153,59.723747 
	C433.231079,59.146011 433.705017,58.515675 434.479858,57.821762 
	C434.314270,58.395840 433.847748,59.033497 433.069153,59.723747 
z"/>
<path fill="#56A34D" opacity="1.000000" stroke="none" 
	d="
M431.061401,61.843513 
	C431.187897,61.191277 431.675598,60.557491 432.464172,59.844612 
	C432.804840,60.208923 432.844666,60.652328 432.872559,61.426403 
	C432.381287,61.792034 431.901947,61.827000 431.061401,61.843513 
z"/>
<path fill="#56A34D" opacity="1.000000" stroke="none" 
	d="
M423.060699,69.704102 
	C424.201355,68.134499 425.694000,66.555473 427.504333,64.886581 
	C426.352264,66.429367 424.882446,68.062027 423.060699,69.704102 
z"/>
<path fill="#56A34D" opacity="1.000000" stroke="none" 
	d="
M409.152710,83.837067 
	C409.918854,82.562248 411.029816,81.242126 412.460022,79.840767 
	C411.685333,81.103615 410.591431,82.447693 409.152710,83.837067 
z"/>
<path fill="#56A34D" opacity="1.000000" stroke="none" 
	d="
M398.126648,94.766739 
	C398.588623,93.850098 399.389618,92.903252 400.499390,91.876831 
	C400.027283,92.777008 399.246490,93.756775 398.126648,94.766739 
z"/>
<path fill="#56A34D" opacity="1.000000" stroke="none" 
	d="
M403.144318,89.788261 
	C403.595215,88.865402 404.385284,87.909340 405.480957,86.864761 
	C405.018829,87.769188 404.251160,88.762131 403.144318,89.788261 
z"/>
<path fill="#56A34D" opacity="1.000000" stroke="none" 
	d="
M415.091614,77.736176 
	C415.556793,76.815071 416.363220,75.868698 417.478577,74.844208 
	C417.002625,75.747696 416.217743,76.729309 415.091614,77.736176 
z"/>
<path fill="#56A34D" opacity="1.000000" stroke="none" 
	d="
M406.087830,86.727966 
	C406.262390,86.159393 406.750641,85.526291 407.540009,84.815338 
	C407.361237,85.379471 406.881378,86.021454 406.087830,86.727966 
z"/>
<path fill="#56A34D" opacity="1.000000" stroke="none" 
	d="
M428.109253,64.754822 
	C428.268097,64.167770 428.740570,63.506454 429.516510,62.761406 
	C429.354248,63.345291 428.888580,64.012924 428.109253,64.754822 
z"/>
<path fill="#56A34D" opacity="1.000000" stroke="none" 
	d="
M420.991638,71.741585 
	C421.159576,71.170654 421.643188,70.529694 422.423523,69.796036 
	C422.249268,70.359406 421.778290,71.015480 420.991638,71.741585 
z"/>
<path fill="#56A34D" opacity="1.000000" stroke="none" 
	d="
M418.082947,74.727798 
	C418.247833,74.140205 418.730042,73.491531 419.512024,72.758682 
	C419.341248,73.338585 418.870728,74.002655 418.082947,74.727798 
z"/>
<path fill="#56A34D" opacity="1.000000" stroke="none" 
	d="
M413.073151,79.730408 
	C413.233246,79.151276 413.706665,78.524429 414.474060,77.822266 
	C414.307526,78.392189 413.846985,79.037437 413.073151,79.730408 
z"/>
<path fill="#56A34D" opacity="1.000000" stroke="none" 
	d="
M401.105927,91.755219 
	C401.274567,91.192604 401.752808,90.571609 402.527130,89.877182 
	C402.354004,90.434776 401.884766,91.065804 401.105927,91.755219 
z"/>
<path fill="#56A34D" opacity="1.000000" stroke="none" 
	d="
M396.078552,96.880142 
	C396.217316,96.220581 396.703186,95.585014 397.490051,94.871147 
	C397.816223,95.264023 397.841400,95.735184 397.838928,96.558563 
	C397.349396,96.908562 396.887543,96.906349 396.078552,96.880142 
z"/>
<path fill="#010504" opacity="1.000000" stroke="none" 
	d="
M314.544617,109.113922 
	C316.073578,109.069595 317.148346,109.150528 318.613342,109.110802 
	C326.435364,109.124664 333.871063,109.165863 341.295807,109.471992 
	C342.791107,109.533653 344.244965,110.600357 345.736328,111.589088 
	C345.445648,111.986946 345.220367,112.130684 344.693726,112.683983 
	C336.155334,121.204575 328.001984,129.446884 319.524475,137.801422 
	C314.840607,142.421051 310.480896,146.928467 305.830811,151.518677 
	C304.917023,152.358978 304.293671,153.116501 303.365570,153.971375 
	C301.326935,155.933884 299.593048,157.799057 297.535309,159.779449 
	C286.440399,170.854996 275.669342,181.815338 264.573914,192.879852 
	C256.456024,200.877579 248.662521,208.771133 240.544556,216.779053 
	C233.550110,223.723648 226.880112,230.553864 220.210129,237.384079 
	C218.185089,239.306839 216.160019,241.229584 213.687073,243.557159 
	C208.126999,249.288269 203.014832,254.614532 197.902679,259.940796 
	C197.902679,259.940826 197.965729,259.969696 197.626297,260.021606 
	C187.803024,269.695099 178.319183,279.316681 168.531677,289.066589 
	C161.359421,296.084412 154.490814,302.973877 147.622192,309.863312 
	C141.131805,316.354065 134.641418,322.844818 128.048904,329.658386 
	C120.129860,337.642731 112.312943,345.304291 104.380295,353.299347 
	C97.756294,359.956299 91.248024,366.279755 84.655060,372.909729 
	C78.776398,378.895447 72.982422,384.574646 67.076004,390.565552 
	C60.045284,397.704071 53.127010,404.530884 46.106304,411.677765 
	C42.737816,415.128357 39.471760,418.258911 35.727772,421.688538 
	C34.498550,422.010498 33.747261,422.033356 32.995979,422.056244 
	C32.314556,421.096283 31.633135,420.136322 30.701042,419.017029 
	C30.511923,418.309387 30.573475,417.761047 30.538015,416.953186 
	C36.628590,410.490387 42.816177,404.287140 49.091331,397.773163 
	C55.910454,390.944672 62.642010,384.426910 69.509949,377.580658 
	C75.683296,371.323303 81.720245,365.394440 87.857193,359.134125 
	C94.854408,352.066925 101.751640,345.331177 108.738922,338.277679 
	C112.790703,334.140350 116.752419,330.320770 121.137054,326.091919 
	C122.169792,324.869751 122.779594,324.056854 123.389404,323.243988 
	C123.389404,323.243988 123.252708,323.246735 123.572128,323.229431 
	C124.741364,322.248352 125.591179,321.284607 126.440979,320.320862 
	C126.440979,320.320862 126.472542,320.338287 126.489883,320.332703 
	C135.152771,311.853149 143.892426,303.471008 152.344971,294.808685 
	C153.651123,293.470154 154.157837,290.847961 154.163269,288.817047 
	C154.320312,230.173340 154.366409,171.529312 154.424881,112.885330 
	C154.425217,112.554718 154.347855,112.224022 154.147919,111.447166 
	C154.818573,110.446655 155.648071,109.892334 157.106491,109.301010 
	C158.488037,109.180130 159.240692,109.096260 159.993332,109.012390 
	C162.046860,109.088516 164.100403,109.164650 166.580536,109.119522 
	C177.521744,109.162994 188.036346,109.327736 198.975159,109.438919 
	C199.399368,109.385353 199.466187,109.401489 199.623077,109.800781 
	C199.904037,111.847168 200.135361,113.494209 200.136078,115.141350 
	C200.146561,139.373657 200.114838,163.606003 200.134323,187.838287 
	C200.135956,189.872925 200.432388,191.907333 200.591873,193.941849 
	C201.043427,194.113251 201.494980,194.284653 201.946533,194.456055 
	C203.265213,192.960495 204.583893,191.464951 205.902588,189.969391 
	C211.890350,183.937256 217.878113,177.905121 223.974396,171.563751 
	C231.828766,163.464523 239.574615,155.674545 247.464050,147.564026 
	C255.699127,139.055161 263.790588,130.866806 271.981659,122.353851 
	C274.554596,119.691086 277.265717,117.553474 279.446411,114.968430 
	C282.840088,110.945465 286.750336,108.554535 292.582214,109.146637 
	C300.029266,109.089943 307.059875,109.164566 314.544617,109.113922 
z"/>
<path fill="#56A34D" opacity="1.000000" stroke="none" 
	d="
M373.126923,119.797333 
	C373.590942,118.881836 374.391724,117.928001 375.501099,116.894714 
	C375.027679,117.796501 374.245697,118.777740 373.126923,119.797333 
z"/>
<path fill="#56A34D" opacity="1.000000" stroke="none" 
	d="
M388.117615,104.814682 
	C388.582367,103.893059 389.386505,102.931366 390.499207,101.881126 
	C390.024200,102.786583 389.240601,103.780594 388.117615,104.814682 
z"/>
<path fill="#56A34D" opacity="1.000000" stroke="none" 
	d="
M391.095093,101.761467 
	C391.363220,101.035019 391.936005,100.254044 392.801239,99.411285 
	C392.529053,100.135315 391.964417,100.921127 391.095093,101.761467 
z"/>
<path fill="#56A34D" opacity="1.000000" stroke="none" 
	d="
M383.040771,109.748505 
	C383.218445,109.166183 383.712311,108.518806 384.511719,107.796066 
	C384.330536,108.374954 383.843781,109.029198 383.040771,109.748505 
z"/>
<path fill="#56A34D" opacity="1.000000" stroke="none" 
	d="
M378.117554,114.745636 
	C378.276489,114.165894 378.746643,113.524025 379.515442,112.805878 
	C379.352264,113.380905 378.890503,114.032211 378.117554,114.745636 
z"/>
<path fill="#56A34D" opacity="1.000000" stroke="none" 
	d="
M376.122314,116.755875 
	C376.283234,116.189873 376.751892,115.569389 377.514038,114.877701 
	C377.348358,115.438126 376.889221,116.069756 376.122314,116.755875 
z"/>
<path fill="#56A34D" opacity="1.000000" stroke="none" 
	d="
M366.133209,126.894318 
	C366.273712,126.226501 366.753906,125.591164 367.534119,124.881729 
	C367.852783,125.275620 367.871429,125.743599 367.861572,126.561340 
	C367.379639,126.916321 366.926300,126.921555 366.133209,126.894318 
z"/>
<path fill="#51C176" opacity="1.000000" stroke="none" 
	d="
M338.543427,345.047852 
	C329.180389,334.592804 320.096985,323.838867 310.965332,312.268982 
	C310.944702,282.680573 311.004852,253.908096 310.986237,225.135681 
	C310.976990,210.835403 310.823212,196.535248 310.734833,182.235031 
	C320.932037,171.871826 331.129211,161.508621 341.651978,151.042557 
	C341.400970,164.955612 340.591431,178.966888 340.311768,192.988739 
	C340.017853,207.723389 340.225677,222.468155 340.224670,237.208511 
	C340.223694,251.786362 340.230988,266.364227 340.243408,280.942078 
	C340.255829,295.517548 340.277435,310.092987 340.298462,324.668457 
	C340.304688,328.974762 340.495667,333.290253 340.267578,337.583771 
	C340.139709,339.990936 339.327118,342.361755 338.543427,345.047852 
z"/>
<path fill="#22A797" opacity="1.000000" stroke="none" 
	d="
M126.078583,320.344482 
	C125.591179,321.284607 124.741364,322.248352 123.574844,323.297729 
	C124.077484,322.378296 124.896828,321.373199 126.078583,320.344482 
z"/>
<path fill="#22A797" opacity="1.000000" stroke="none" 
	d="
M123.066971,323.311829 
	C122.779594,324.056854 122.169792,324.869751 121.260117,325.773438 
	C121.555016,325.036072 122.149780,324.207855 123.066971,323.311829 
z"/>
<path fill="#2CA183" opacity="1.000000" stroke="none" 
	d="
M168.835327,288.938263 
	C178.319183,279.316681 187.803024,269.695099 197.614655,259.988953 
	C195.138214,265.377258 194.552887,271.219452 195.395309,277.190399 
	C195.605042,278.676849 196.749786,281.223053 197.525162,281.246063 
	C202.845139,281.403839 202.034683,285.119324 202.038376,288.339417 
	C202.062363,309.286896 202.111862,330.235077 201.935364,351.181183 
	C201.916840,353.380646 200.481064,355.568146 199.350906,357.903687 
	C192.313232,358.044556 185.627472,358.042938 178.473969,358.054260 
	C172.654144,358.052216 167.302063,358.037231 161.484467,358.029602 
	C160.724487,357.676361 160.429993,357.315765 160.523407,356.695435 
	C172.055786,356.450531 183.202042,356.355469 194.343781,356.537231 
	C198.491302,356.604858 200.357330,355.372345 200.330856,350.872345 
	C200.211426,330.580109 200.366684,310.286377 200.370117,289.993164 
	C200.370407,288.308929 199.976654,286.624634 199.606522,283.665619 
	C196.582336,286.438660 194.518356,288.272186 192.520172,290.174835 
	C186.997940,295.432922 181.503189,300.719910 175.973083,305.570679 
	C175.447479,299.060547 174.946381,292.975189 174.420319,286.586761 
	C172.097153,287.564911 170.466248,288.251587 168.835327,288.938263 
z"/>
<path fill="#36AB81" opacity="1.000000" stroke="none" 
	d="
M220.525116,237.707916 
	C226.880112,230.553864 233.550110,223.723648 240.480682,217.157150 
	C236.823914,223.050705 237.857574,229.450668 238.282837,235.617630 
	C238.388733,237.153366 240.685623,238.538040 241.975449,239.992157 
	C235.956543,246.140015 229.937637,252.287872 223.586441,258.563110 
	C223.170776,254.084915 223.306000,249.460526 222.912811,244.881516 
	C222.713120,242.556091 221.561417,240.312408 220.525116,237.707916 
z"/>
<path fill="#36AB81" opacity="1.000000" stroke="none" 
	d="
M218.241425,274.738831 
	C222.139496,278.993988 226.064819,283.635742 230.055634,288.616089 
	C228.341049,288.640564 226.560989,288.326416 224.392090,287.995789 
	C222.091736,283.694672 220.180206,279.410034 218.241425,274.738831 
z"/>
<path fill="#2CA183" opacity="1.000000" stroke="none" 
	d="
M198.243805,259.878906 
	C203.014832,254.614532 208.126999,249.288269 213.564377,243.858261 
	C208.788040,249.108688 203.686493,254.462845 198.243805,259.878906 
z"/>
<path fill="#36AB81" opacity="1.000000" stroke="none" 
	d="
M214.846283,267.171082 
	C215.736374,268.797882 216.335663,270.541229 216.995316,272.630493 
	C214.553680,271.813507 211.965881,270.688354 214.846283,267.171082 
z"/>
<path fill="#36AB81" opacity="1.000000" stroke="none" 
	d="
M233.360199,293.555023 
	C234.910110,294.879059 236.450134,296.595551 238.055389,298.652283 
	C236.530502,297.310822 234.940399,295.629150 233.360199,293.555023 
z"/>
<path fill="#36AB81" opacity="1.000000" stroke="none" 
	d="
M238.279602,299.653381 
	C239.508209,300.604187 240.747849,301.940155 242.057449,303.612732 
	C240.848480,302.645752 239.569565,301.342163 238.279602,299.653381 
z"/>
<path fill="#36AB81" opacity="1.000000" stroke="none" 
	d="
M248.159332,311.878601 
	C249.114777,312.399811 250.027679,313.361450 250.983948,314.657898 
	C250.273239,314.990540 249.519196,314.988342 248.388550,314.974182 
	C248.046906,314.081085 248.081848,313.200043 248.159332,311.878601 
z"/>
<path fill="#36AB81" opacity="1.000000" stroke="none" 
	d="
M245.216461,307.818298 
	C245.745193,308.109100 246.331909,308.728363 246.963989,309.670166 
	C246.431061,309.377380 245.852753,308.762085 245.216461,307.818298 
z"/>
<path fill="#36AB81" opacity="1.000000" stroke="none" 
	d="
M231.253662,290.737122 
	C231.840103,291.021667 232.498077,291.657410 233.219498,292.638702 
	C232.630356,292.352264 231.977783,291.720276 231.253662,290.737122 
z"/>
<path fill="#36AB81" opacity="1.000000" stroke="none" 
	d="
M251.251190,315.719452 
	C252.493607,316.646851 253.756134,317.954926 255.080566,319.599915 
	C253.852066,318.657928 252.561676,317.379028 251.251190,315.719452 
z"/>
<path fill="#36AB81" opacity="1.000000" stroke="none" 
	d="
M270.201477,339.007080 
	C270.712616,339.257172 271.285767,339.809753 271.896515,340.669067 
	C271.377228,340.420380 270.820343,339.864990 270.201477,339.007080 
z"/>
<path fill="#36AB81" opacity="1.000000" stroke="none" 
	d="
M261.240479,327.772888 
	C261.787354,328.059265 262.387756,328.680939 263.030762,329.630310 
	C262.480286,329.341400 261.887146,328.724792 261.240479,327.772888 
z"/>
<path fill="#36AB81" opacity="1.000000" stroke="none" 
	d="
M258.212036,323.940826 
	C258.747040,324.200012 259.345947,324.775085 259.986298,325.667969 
	C259.443817,325.409393 258.859894,324.833069 258.212036,323.940826 
z"/>
<path fill="#2EAC8D" opacity="1.000000" stroke="none" 
	d="
M205.516907,189.937973 
	C204.583893,191.464951 203.265213,192.960495 201.946533,194.456055 
	C201.494980,194.284653 201.043427,194.113251 200.591873,193.941849 
	C200.432388,191.907333 200.135956,189.872925 200.134323,187.838287 
	C200.114838,163.606003 200.146561,139.373657 200.136078,115.141350 
	C200.135361,113.494209 199.904037,111.847168 199.639282,109.770477 
	C200.334900,111.409760 201.882416,113.473183 201.898361,115.548378 
	C202.072891,138.262344 201.982132,160.978226 202.046432,183.693359 
	C202.053360,186.144058 201.092072,189.342407 205.516907,189.937973 
z"/>
<path fill="#27A892" opacity="1.000000" stroke="none" 
	d="
M168.531677,289.066589 
	C170.466248,288.251587 172.097153,287.564911 174.420319,286.586761 
	C174.946381,292.975189 175.447479,299.060547 175.840714,305.877686 
	C174.479507,307.939911 173.231827,309.275665 171.971863,310.599701 
	C166.139099,316.729065 160.302917,322.855133 154.211243,328.972198 
	C153.611649,328.981354 153.268784,329.000702 152.925919,329.020020 
	C152.283981,324.770203 151.813828,320.484192 150.928909,316.285583 
	C150.474899,314.131439 149.280075,312.133392 148.021118,309.964050 
	C154.490814,302.973877 161.359421,296.084412 168.531677,289.066589 
z"/>
<path fill="#2CA183" opacity="1.000000" stroke="none" 
	d="
M152.934479,329.486694 
	C153.268784,329.000702 153.611649,328.981354 154.240875,329.440796 
	C154.593460,338.631073 154.659698,347.342651 154.725952,356.054199 
	C154.335907,356.045776 153.945862,356.037323 153.263077,356.011810 
	C152.961243,347.314270 152.952148,338.633820 152.934479,329.486694 
z"/>
<path fill="#36AB81" opacity="1.000000" stroke="none" 
	d="
M278.237305,348.946777 
	C278.781921,349.190491 279.387268,349.749054 280.030090,350.625305 
	C279.477692,350.382568 278.887878,349.822083 278.237305,348.946777 
z"/>
<path fill="#22A797" opacity="1.000000" stroke="none" 
	d="
M159.875916,108.757942 
	C159.240692,109.096260 158.488037,109.180130 157.369690,109.148163 
	C157.922165,108.856049 158.840332,108.679771 159.875916,108.757942 
z"/>
<path fill="#53C173" opacity="1.000000" stroke="none" 
	d="
M319.848633,137.689209 
	C328.001984,129.446884 336.155334,121.204575 344.649048,112.887878 
	C344.997742,117.759331 344.716919,122.731529 345.163910,127.637398 
	C345.331024,129.471497 347.194672,131.151031 348.669006,132.961716 
	C341.244873,140.929459 333.436523,148.836533 324.937256,156.814758 
	C323.166016,154.993713 321.484467,153.207489 321.128326,151.187561 
	C320.346039,146.750839 320.234192,142.195892 319.848633,137.689209 
z"/>
<path fill="#0E9EA7" opacity="1.000000" stroke="none" 
	d="
M33.117702,422.303955 
	C33.747261,422.033356 34.498550,422.010498 35.625092,422.010712 
	C35.080040,422.206390 34.159733,422.378998 33.117702,422.303955 
z"/>
<path fill="#56A34D" opacity="1.000000" stroke="none" 
	d="
M403.756409,78.124756 
	C403.287292,79.028610 402.491882,79.988358 401.379944,81.009750 
	C401.852325,80.107811 402.641205,79.144234 403.756409,78.124756 
z"/>
<path fill="#56A34D" opacity="1.000000" stroke="none" 
	d="
M413.818237,68.174698 
	C413.338989,69.075600 412.529388,70.031448 411.403015,71.048721 
	C411.886749,70.149971 412.687317,69.189812 413.818237,68.174698 
z"/>
<path fill="#56A34D" opacity="1.000000" stroke="none" 
	d="
M415.849182,65.986633 
	C415.657867,66.714729 415.188446,67.348251 414.423157,68.064964 
	C414.310272,67.540123 414.493256,66.932091 414.837738,66.040535 
	C415.189850,65.802025 415.380463,65.847038 415.849182,65.986633 
z"/>
<path fill="#56A34D" opacity="1.000000" stroke="none" 
	d="
M410.805573,71.151711 
	C410.626831,71.711807 410.141510,72.334068 409.356934,73.028206 
	C409.538147,72.471344 410.018585,71.842606 410.805573,71.151711 
z"/>
<path fill="#56A34D" opacity="1.000000" stroke="none" 
	d="
M405.822174,76.143311 
	C405.640869,76.700401 405.155212,77.323578 404.369293,78.014938 
	C404.551971,77.458549 405.034882,76.833977 405.822174,76.143311 
z"/>
<path fill="#56A34D" opacity="1.000000" stroke="none" 
	d="
M400.769470,81.136826 
	C400.605042,81.698288 400.138489,82.332405 399.373779,83.040375 
	C399.539581,82.479309 400.003479,81.844398 400.769470,81.136826 
z"/>
<path fill="#020705" opacity="1.000000" stroke="none" 
	d="
M155.156708,356.152313 
	C154.659698,347.342651 154.593460,338.631073 154.497589,329.450928 
	C160.302917,322.855133 166.139099,316.729065 171.971863,310.599701 
	C173.231827,309.275665 174.479507,307.939911 175.865204,306.302490 
	C181.503189,300.719910 186.997940,295.432922 192.520172,290.174835 
	C194.518356,288.272186 196.582336,286.438660 199.606522,283.665619 
	C199.976654,286.624634 200.370407,288.308929 200.370117,289.993164 
	C200.366684,310.286377 200.211426,330.580109 200.330856,350.872345 
	C200.357330,355.372345 198.491302,356.604858 194.343781,356.537231 
	C183.202042,356.355469 172.055786,356.450531 160.442688,356.476349 
	C158.511856,356.428162 157.049652,356.339294 155.156708,356.152313 
z"/>
<path fill="#56A34D" opacity="1.000000" stroke="none" 
	d="
M430.754639,51.122765 
	C429.640411,52.701500 428.186462,54.329849 426.408264,56.032578 
	C427.527618,54.462097 428.971252,52.817238 430.754639,51.122765 
z"/>
<path fill="#56A34D" opacity="1.000000" stroke="none" 
	d="
M434.790771,47.117661 
	C433.992432,48.364769 432.854187,49.657459 431.394379,51.022289 
	C432.198822,49.784039 433.324860,48.473640 434.790771,47.117661 
z"/>
<path fill="#56A34D" opacity="1.000000" stroke="none" 
	d="
M420.741516,61.106110 
	C420.088562,62.193443 419.079193,63.329605 417.742004,64.542313 
	C418.404449,63.464211 419.394806,62.309574 420.741516,61.106110 
z"/>
<path fill="#56A34D" opacity="1.000000" stroke="none" 
	d="
M425.799500,56.152824 
	C425.630646,56.713902 425.153931,57.344433 424.379883,58.059219 
	C424.552216,57.503075 425.021942,56.862675 425.799500,56.152824 
z"/>
<path fill="#4ABD7B" opacity="1.000000" stroke="none" 
	d="
M310.400269,182.364227 
	C310.823212,196.535248 310.976990,210.835403 310.986237,225.135681 
	C311.004852,253.908096 310.944702,282.680573 310.890686,311.954834 
	C305.167877,305.784454 299.471405,299.112213 293.724121,291.729584 
	C292.684784,290.049347 291.696228,289.079468 290.707672,288.109619 
	C290.079102,287.491486 289.450562,286.873352 288.773102,285.599487 
	C287.115417,283.308105 285.506622,281.672363 283.897858,280.036652 
	C283.563873,279.935333 283.312866,279.731720 283.132416,278.772095 
	C283.396149,276.311096 283.912689,274.503662 283.911652,272.696564 
	C283.899475,251.562973 283.809479,230.429459 283.740021,209.295914 
	C292.515259,200.361755 301.290466,191.427597 310.400269,182.364227 
z"/>
<path fill="#42B37B" opacity="1.000000" stroke="none" 
	d="
M283.403900,209.416092 
	C283.809479,230.429459 283.899475,251.562973 283.911652,272.696564 
	C283.912689,274.503662 283.396149,276.311096 283.071472,278.532349 
	C273.058807,267.148407 263.028137,255.404861 253.265244,243.442795 
	C252.536118,242.549423 253.106689,239.490250 254.116135,238.454880 
	C263.637329,228.689194 273.385254,219.144608 283.403900,209.416092 
z"/>
<path fill="#43B278" opacity="1.000000" stroke="none" 
	d="
M264.898285,192.775696 
	C275.669342,181.815338 286.440399,170.854996 297.479706,160.147156 
	C292.991058,165.977570 293.712036,172.703491 294.151642,179.214310 
	C294.286560,181.212494 296.061646,183.099930 297.085632,185.038086 
	C287.610870,194.632080 278.136078,204.226059 268.178467,213.597641 
	C267.131744,210.373367 266.435150,207.388947 266.037262,204.365234 
	C265.531128,200.518692 265.266846,196.640335 264.898285,192.775696 
z"/>
<path fill="#3DB17F" opacity="1.000000" stroke="none" 
	d="
M264.573914,192.879852 
	C265.266846,196.640335 265.531128,200.518692 266.037262,204.365234 
	C266.435150,207.388947 267.131744,210.373367 267.866577,213.725067 
	C259.562286,222.640167 251.087082,231.205429 242.293655,239.881439 
	C240.685623,238.538040 238.388733,237.153366 238.282837,235.617630 
	C237.857574,229.450668 236.823914,223.050705 240.805145,217.042786 
	C248.662521,208.771133 256.456024,200.877579 264.573914,192.879852 
z"/>
<path fill="#4CBB77" opacity="1.000000" stroke="none" 
	d="
M297.389709,184.904236 
	C296.061646,183.099930 294.286560,181.212494 294.151642,179.214310 
	C293.712036,172.703491 292.991058,165.977570 297.803558,160.031937 
	C299.593048,157.799057 301.326935,155.933884 303.669128,153.899567 
	C304.891998,152.965591 305.506592,152.200729 306.121185,151.435883 
	C310.480896,146.928467 314.840607,142.421051 319.524475,137.801422 
	C320.234192,142.195892 320.346039,146.750839 321.128326,151.187561 
	C321.484467,153.207489 323.166016,154.993713 324.627991,156.943420 
	C315.904327,166.257416 306.799072,175.513901 297.389709,184.904236 
z"/>
<path fill="#42B37B" opacity="1.000000" stroke="none" 
	d="
M283.964996,280.372437 
	C285.506622,281.672363 287.115417,283.308105 288.742706,285.330597 
	C287.184875,284.047668 285.608490,282.377960 283.964996,280.372437 
z"/>
<path fill="#42B37B" opacity="1.000000" stroke="none" 
	d="
M290.782288,288.452148 
	C291.696228,289.079468 292.684784,290.049347 293.685120,291.410339 
	C292.750244,290.799255 291.803558,289.796967 290.782288,288.452148 
z"/>
<path fill="#43B278" opacity="1.000000" stroke="none" 
	d="
M305.830811,151.518661 
	C305.506592,152.200729 304.891998,152.965591 303.973877,153.802246 
	C304.293671,153.116501 304.917023,152.358978 305.830811,151.518661 
z"/>
</svg>